<?xml version="1.0" encoding="UTF-8"?>
<svg id="Layer_2" data-name="Layer 2" xmlns="http://www.w3.org/2000/svg" viewBox="0 0 829.04 119.13">
  <defs>
    <style>
      .cls-1 {
        fill: red;
      }
    </style>
  </defs>
  <g id="Layer_1-2" data-name="Layer 1">
    <g>
      <path class="cls-1" d="M70.26.16c1.8-.15,3.95-.09,5.77-.09,9.19-.01,18.39,0,27.58,0h61.25s35.43-.01,35.43-.01c7.53,0,17.93-.38,25.03.94,10.46,1.97,20.2,6.71,28.2,13.74,9.88,8.67,16.95,21.36,19.29,34.26,6.34,34.92-20.32,68.21-55.89,69.44-6.82.24-13.65.1-20.45.11l-41.28.09-44.06.15-15,.07c-2.89.01-5.73.05-8.62-.06-4.88-.2-8.23-5.55-5.65-9.89,3.01-5.29,6.96-10.83,9.88-16.08,5.52-9.93,6.48-9.3,17.16-9.21l11.65.03h43.31s34.98.07,34.98.07c5.87.01,12.19.17,18.04-.19,6-.36,12.11-4.04,15.87-8.77,4.11-5.18,5.95-11.81,5.1-18.37-.75-6.12-4.14-11.92-8.99-15.7-3.52-2.74-7.73-4.44-12.16-4.92-3.55-.38-12.9-.1-16.77-.09l-32.44.05h-59.17c-7.22-.03-14.69-.23-21.88.08-1.88.08-7.08,9.53-8.16,11.34l-9.51,16.14-19.76,32.96c-3.59,5.95-7.13,11.98-10.75,17.9-1.44,2.18-2.86,4.43-5.67,4.74-4.7.52-9.45.14-14.18.2-3.97-.1-8.13.16-12.07-.09-3.12-.2-5.94-2.68-6.28-5.81-.22-2,.23-4.01,1.23-5.71,10.72-18.07,21.67-36.03,32.37-54.11l18.44-31.04c2.31-3.98,4.64-7.93,7.01-11.87,3.03-5.02,4.67-9.34,11.15-10.28Z"/>
      <g>
        <path class="cls-1" d="M331.64,118.3l-4.67-8.85h-18.25l-4.61,8.85h-5.15l16.99-31.95h3.95l17.17,31.95h-5.44ZM310.34,106.09h15.02l-7.48-14.06-7.54,14.06Z"/>
        <path class="cls-1" d="M377.27,86.35h4.78v19.8c0,9.81-7.18,12.98-15.19,12.98s-15.31-3.17-15.31-12.98v-19.8h4.79v19.8c0,5.86,4.37,8.49,10.53,8.49s10.41-2.63,10.41-8.49v-19.8Z"/>
        <path class="cls-1" d="M410.76,118.3v-27.58h-12.08v-4.37h28.95v4.37h-12.03v27.58h-4.84Z"/>
        <path class="cls-1" d="M459.99,119.13c-10.53,0-18.18-6.52-18.18-16.39s7.36-16.99,18.18-16.99,18.3,7.12,18.3,16.99-7.66,16.39-18.3,16.39ZM459.99,90.3c-8.31,0-13.4,5.08-13.4,12.44s5.39,11.9,13.4,11.9,13.52-4.54,13.52-11.9-5.38-12.44-13.52-12.44Z"/>
        <path class="cls-1" d="M559.45,113.33c-2.16,2.81-7.12,5.74-14.54,5.74-10.29,0-18.06-6.22-18.06-16.51s6.58-16.81,19.02-16.81c7,0,12.02,2.93,13.76,5.5l-3.11,3.29c-2.09-2.69-5.8-4.37-10.95-4.37-9.03,0-13.94,5.32-13.94,12.32,0,7.6,5.92,12.14,14,12.14,5.08,0,8.5-1.91,10.77-4.78l3.05,3.47Z"/>
        <path class="cls-1" d="M606.52,118.3l-4.67-8.85h-18.25l-4.61,8.85h-5.15l16.99-31.95h3.95l17.17,31.95h-5.44ZM585.22,106.09h15.02l-7.48-14.06-7.54,14.06Z"/>
        <path class="cls-1" d="M655.32,118.3l-10.05-11.43h-11.37v11.43h-4.73v-31.95h16.99c7.84,0,11.25,4.25,11.25,10.23,0,4.67-2.87,8.14-7.54,9.27l11.3,12.44h-5.86ZM633.9,90.66v12.5h11.9c4.31,0,6.94-2.63,6.94-6.28s-1.97-6.22-6.94-6.22h-11.9Z"/>
        <path class="cls-1" d="M678.4,118.3v-31.95h25.49v4.31h-20.76v9.45h18.06v3.41h-18.06v10.41h21.18v4.37h-25.9Z"/>
      </g>
      <g>
        <path class="cls-1" d="M329.43,1h-30.45v59.48h15.01v-19.16h15.43c14.77,0,22.73-6.55,22.73-20.58s-7.96-19.74-22.73-19.74ZM328.18,28.79h-14.19v-14.93h14.19c6.39,0,10.54,1.33,10.54,7.3s-3.98,7.63-10.54,7.63Z"/>
        <polygon class="cls-1" points="437.67 1 423.57 1 423.57 60.48 472.52 60.48 472.52 47.37 437.67 47.37 437.67 1"/>
        <path class="cls-1" d="M511.93,0c-21.49,0-35.76,13.03-35.76,31.53s15.68,30.37,35.76,30.37,36.09-11.86,36.09-30.37S532.92,0,511.93,0ZM511.93,48.87c-11.95,0-21.4-5.97-21.4-17.34s9.29-18.25,21.4-18.25,21.4,6.89,21.4,18.25-9.13,17.34-21.4,17.34Z"/>
        <polygon class="cls-1" points="604.05 1 575.1 60.48 590.62 60.48 607.87 22.65 625.29 60.48 641.64 60.48 612.43 1 604.05 1"/>
        <polygon class="cls-1" points="665.34 1 651.24 1 651.24 60.48 700.19 60.48 700.19 47.37 665.34 47.37 665.34 1"/>
        <polygon class="cls-1" points="696.71 13.86 718.11 13.86 718.11 60.48 732.3 60.48 732.3 13.86 753.7 13.86 753.7 1 696.71 1 696.71 13.86"/>
        <path class="cls-1" d="M792.95,0c-21.49,0-35.76,13.03-35.76,31.53s15.68,30.37,35.76,30.37,36.09-11.86,36.09-30.37-15.1-31.53-36.09-31.53ZM792.95,48.87c-11.95,0-21.4-5.97-21.4-17.34s9.29-18.25,21.4-18.25,21.4,6.89,21.4,18.25-9.13,17.34-21.4,17.34Z"/>
        <polygon class="cls-1" points="376.65 1.05 347.69 60.54 363.21 60.54 380.46 22.71 397.88 60.54 414.23 60.54 385.03 1.05 376.65 1.05"/>
      </g>
    </g>
  </g>
</svg>