<?xml version="1.0" encoding="UTF-8"?>
<svg id="Layer_2" data-name="Layer 2" xmlns="http://www.w3.org/2000/svg" viewBox="0 0 530.06 326.34">
  <g id="Layer_1-2" data-name="Layer 1">
    <g>
      <path d="M181.14.2c2.27-.19,4.97-.11,7.26-.12,11.58-.01,23.16,0,34.74,0l77.13-.02h44.62c9.48,0,22.58-.47,31.53,1.18,13.17,2.48,25.44,8.46,35.51,17.3,12.45,10.91,21.35,26.9,24.3,43.15,7.98,43.98-25.59,85.9-70.38,87.45-8.59.3-17.19.13-25.75.14l-51.98.11-55.49.19-18.89.08c-3.64.01-7.21.07-10.86-.08-6.14-.25-10.36-6.99-7.12-12.46,3.79-6.67,8.76-13.64,12.44-20.25,6.96-12.5,8.16-11.71,21.6-11.6l14.67.04,54.55.02,44.05.07c7.4.01,15.35.21,22.71-.24,7.55-.46,15.25-5.09,19.98-11.04,5.18-6.53,7.5-14.87,6.43-23.13-.94-7.7-5.22-15.01-11.32-19.77-4.43-3.45-9.73-5.59-15.32-6.2-4.47-.47-16.24-.13-21.12-.11l-40.86.06h-74.52c-9.09-.03-18.5-.29-27.56.1-2.37.1-8.92,12-10.28,14.28l-11.98,20.32-24.89,41.5c-4.52,7.5-8.97,15.08-13.53,22.55-1.82,2.74-3.6,5.58-7.13,5.97-5.92.66-11.89.17-17.86.25-5-.13-10.23.21-15.21-.11-3.93-.25-7.48-3.37-7.91-7.32-.27-2.51.29-5.05,1.56-7.19,13.5-22.76,27.28-45.38,40.77-68.14l23.22-39.09c2.91-5.01,5.85-9.99,8.83-14.95,3.81-6.32,5.88-11.76,14.04-12.94Z"/>
      <g>
        <path d="M95.03,325.5l-4.67-8.85h-18.25l-4.61,8.85h-5.15l16.99-31.95h3.95l17.17,31.95h-5.44ZM73.73,313.3h15.02l-7.48-14.06-7.54,14.06Z"/>
        <path d="M140.66,293.55h4.78v19.8c0,9.81-7.18,12.98-15.19,12.98s-15.31-3.17-15.31-12.98v-19.8h4.79v19.8c0,5.86,4.37,8.49,10.53,8.49s10.41-2.63,10.41-8.49v-19.8Z"/>
        <path d="M174.15,325.5v-27.58h-12.08v-4.37h28.95v4.37h-12.03v27.58h-4.84Z"/>
        <path d="M223.38,326.34c-10.53,0-18.18-6.52-18.18-16.39s7.36-16.99,18.18-16.99,18.3,7.12,18.3,16.99-7.66,16.39-18.3,16.39ZM223.38,297.5c-8.31,0-13.4,5.08-13.4,12.44s5.39,11.9,13.4,11.9,13.52-4.54,13.52-11.9-5.38-12.44-13.52-12.44Z"/>
        <path d="M322.84,320.54c-2.16,2.81-7.12,5.74-14.54,5.74-10.29,0-18.06-6.22-18.06-16.51s6.58-16.81,19.02-16.81c7,0,12.02,2.93,13.76,5.5l-3.11,3.29c-2.09-2.69-5.8-4.37-10.95-4.37-9.03,0-13.94,5.32-13.94,12.32,0,7.6,5.92,12.14,14,12.14,5.08,0,8.5-1.91,10.77-4.78l3.05,3.47Z"/>
        <path d="M369.91,325.5l-4.67-8.85h-18.25l-4.61,8.85h-5.15l16.99-31.95h3.95l17.17,31.95h-5.44ZM348.61,313.3h15.02l-7.48-14.06-7.54,14.06Z"/>
        <path d="M418.71,325.5l-10.05-11.43h-11.37v11.43h-4.73v-31.95h16.99c7.84,0,11.25,4.25,11.25,10.23,0,4.67-2.87,8.14-7.54,9.27l11.3,12.44h-5.86ZM397.29,297.86v12.5h11.9c4.31,0,6.94-2.63,6.94-6.28s-1.97-6.22-6.94-6.22h-11.9Z"/>
        <path d="M441.79,325.5v-31.95h25.49v4.31h-20.76v9.45h18.06v3.41h-18.06v10.41h21.18v4.37h-25.9Z"/>
      </g>
      <g>
        <path d="M30.45,208.2H0v59.48h15.01v-19.16h15.43c14.77,0,22.73-6.55,22.73-20.58s-7.96-19.74-22.73-19.74ZM29.2,235.99h-14.19v-14.93h14.19c6.39,0,10.54,1.33,10.54,7.3s-3.98,7.63-10.54,7.63Z"/>
        <polygon points="138.7 208.2 124.59 208.2 124.59 267.68 173.54 267.68 173.54 254.58 138.7 254.58 138.7 208.2"/>
        <path d="M212.95,207.2c-21.49,0-35.76,13.03-35.76,31.53s15.68,30.37,35.76,30.37,36.09-11.86,36.09-30.37-15.1-31.53-36.09-31.53ZM212.95,256.07c-11.95,0-21.4-5.97-21.4-17.34s9.29-18.25,21.4-18.25,21.4,6.89,21.4,18.25-9.13,17.34-21.4,17.34Z"/>
        <polygon points="305.08 208.2 276.12 267.68 291.64 267.68 308.89 229.85 326.32 267.68 342.66 267.68 313.46 208.2 305.08 208.2"/>
        <polygon points="366.36 208.2 352.26 208.2 352.26 267.68 401.21 267.68 401.21 254.58 366.36 254.58 366.36 208.2"/>
        <polygon points="397.73 221.06 419.13 221.06 419.13 267.68 433.32 267.68 433.32 221.06 454.73 221.06 454.73 208.2 397.73 208.2 397.73 221.06"/>
        <path d="M493.97,207.2c-21.49,0-35.76,13.03-35.76,31.53s15.68,30.37,35.76,30.37,36.09-11.86,36.09-30.37-15.1-31.53-36.09-31.53ZM493.97,256.07c-11.95,0-21.4-5.97-21.4-17.34s9.29-18.25,21.4-18.25,21.4,6.89,21.4,18.25-9.13,17.34-21.4,17.34Z"/>
        <polygon points="77.67 208.26 48.71 267.74 64.23 267.74 81.48 229.91 98.91 267.74 115.25 267.74 86.05 208.26 77.67 208.26"/>
      </g>
    </g>
  </g>
</svg>