<?xml version="1.0" encoding="UTF-8"?>
<svg xmlns="http://www.w3.org/2000/svg" viewBox="0 0 64 64" role="img" aria-label="Palo Alto Auto Care">
  <defs>
    <linearGradient id="grad" x1="8" y1="8" x2="56" y2="56" gradientUnits="userSpaceOnUse">
      <stop offset="0" stop-color="#ec1313"/>
      <stop offset="1" stop-color="#c00f0f"/>
    </linearGradient>
  </defs>
  <rect x="6" y="6" width="52" height="52" rx="13" fill="url(#grad)"/>
  <path
    d="M14.5 34.5h4.6l5.1-12.3a4 4 0 0 1 3.7-2.5h12.2a4 4 0 0 1 3.7 2.5l5.1 12.3h4.6a7.5 7.5 0 0 1 7.5 7.5v5.5a4 4 0 0 1-4 4H11a4 4 0 0 1-4-4V42a7.5 7.5 0 0 1 7.5-7.5Z"
    fill="none"
    stroke="#ffffff"
    stroke-width="3.2"
    stroke-linejoin="round"
    stroke-linecap="round"
  />
  <circle cx="22" cy="46" r="4.8" fill="none" stroke="#ffffff" stroke-width="3.2"/>
  <circle cx="42" cy="46" r="4.8" fill="none" stroke="#ffffff" stroke-width="3.2"/>
  <path
    d="M25.5 26.5h13"
    stroke="#ffffff"
    stroke-width="3.2"
    stroke-linecap="round"
    stroke-linejoin="round"
    fill="none"
  />
</svg>
